<svg width="13" height="23" viewBox="0 0 13 23" fill="none" xmlns="http://www.w3.org/2000/svg">
<path d="M12.3498 1.35728C12.5471 1.1641 12.5505 0.847535 12.3573 0.650214C12.1641 0.452893 11.8475 0.449537 11.6502 0.642719L12.3498 1.35728ZM11.6595 22.3661C11.8617 22.5542 12.1781 22.5427 12.3661 22.3405C12.5542 22.1383 12.5427 21.8219 12.3405 21.6339L11.6595 22.3661ZM1.37441 11.4027L1.02463 11.0454L1.37441 11.4027ZM1.38368 12.1261L1.04316 12.4922L1.38368 12.1261ZM11.6502 0.642719L1.02463 11.0454L1.7242 11.76L12.3498 1.35728L11.6502 0.642719ZM1.04316 12.4922L11.6595 22.3661L12.3405 21.6339L1.7242 11.76L1.04316 12.4922ZM1.02463 11.0454C0.616855 11.4446 0.625296 12.1036 1.04316 12.4922L1.7242 11.76H1.7242L1.02463 11.0454Z" fill="#999999"/>
</svg>
