<svg width="13" height="23" viewBox="0 0 13 23" fill="none" xmlns="http://www.w3.org/2000/svg">
<path d="M0.650214 1.35728C0.452893 1.1641 0.449537 0.847535 0.642719 0.650214C0.8359 0.452893 1.15246 0.449537 1.34979 0.642719L0.650214 1.35728ZM1.34052 22.3661C1.13832 22.5542 0.821941 22.5427 0.633877 22.3405C0.445813 22.1383 0.457275 21.8219 0.65948 21.6339L1.34052 22.3661ZM11.6256 11.4027L11.9754 11.0454L11.6256 11.4027ZM11.6163 12.1261L11.9568 12.4922L11.6163 12.1261ZM1.34979 0.642719L11.9754 11.0454L11.2758 11.76L0.650214 1.35728L1.34979 0.642719ZM11.9568 12.4922L1.34052 22.3661L0.65948 21.6339L11.2758 11.76L11.9568 12.4922ZM11.9754 11.0454C12.3831 11.4446 12.3747 12.1036 11.9568 12.4922L11.2758 11.76H11.2758L11.9754 11.0454Z" fill="#999999"/>
</svg>
