<svg width="19" height="9" viewBox="0 0 19 9" fill="none" xmlns="http://www.w3.org/2000/svg">
<path fill-rule="evenodd" clip-rule="evenodd" d="M9.67182 8.99717C9.78615 8.99906 9.90137 9 10.0175 9C14.4532 9 17.5133 6.32342 18.7952 4.67816C19.1264 4.25302 19.0453 3.6388 18.6282 3.31587C16.8516 1.94031 13.0659 0 9.5076 0C5.90608 0 2.4851 1.39607 0.322931 3.33222C-0.0536613 3.66945 -0.105759 4.24702 0.192358 4.652C2.1836 7.35706 5.03766 8.78036 9.0354 8.97647C9.19063 8.99203 9.34815 9 9.50758 9C9.56255 9 9.61731 8.99905 9.67182 8.99717ZM6.12272 7.53855C3.90857 6.94485 2.24554 5.78165 0.977437 4.06847C2.27974 2.90992 4.10291 1.94744 6.15749 1.42464C5.3891 2.2292 4.91864 3.31073 4.91864 4.5C4.91864 5.67123 5.37494 6.73795 6.12272 7.53855ZM9.66275 7.9969C9.4735 7.99356 9.28715 7.98752 9.10367 7.97879C7.254 7.78293 5.88473 6.25708 5.88473 4.5C5.88473 2.6191 7.45378 1.00316 9.50157 1M9.66275 7.9969C11.6371 7.91775 13.1304 6.33496 13.1304 4.5C13.1304 2.61726 11.5583 1 9.50758 1M12.8502 7.5832C13.623 6.77782 14.0965 5.69314 14.0965 4.5C14.0965 3.38402 13.6822 2.36292 12.9963 1.57651C15.0586 2.21203 16.9249 3.25479 18.0132 4.08864C17.1303 5.20726 15.3553 6.82779 12.8502 7.5832Z" fill="#999999"/>
<path d="M9.50764 7C10.9156 7 12.057 5.88071 12.057 4.5C12.057 4.30577 12.0345 4.11671 11.9917 3.93522C11.8015 4.5514 11.2179 5 10.5274 5C9.68265 5 8.9978 4.32843 8.9978 3.5C8.9978 2.8229 9.4553 2.25058 10.0837 2.06409C9.89858 2.02216 9.70575 2 9.50764 2C8.09964 2 6.95823 3.11929 6.95823 4.5C6.95823 5.88071 8.09964 7 9.50764 7Z" fill="#999999"/>
</svg>
