<svg width="40" height="40" viewBox="0 0 40 40" fill="none" xmlns="http://www.w3.org/2000/svg">
<path fill-rule="evenodd" clip-rule="evenodd" d="M20 40C31.0457 40 40 31.0457 40 20C40 8.9543 31.0457 0 20 0C8.9543 0 0 8.9543 0 20C0 31.0457 8.9543 40 20 40ZM20.0819 20.7887V29H16.5164V20.7887H13.5371V17.5887H16.5164V15.2302C16.5164 12.4906 18.3195 11 20.9569 11C22.2187 11 23.3013 11.0868 23.6188 11.1245V13.9887H21.7913C20.3586 13.9887 20.0819 14.6189 20.0819 15.5472V17.5887H23.4967L23.053 20.7887H20.0819Z" fill="#999999"/>
</svg>
