<svg width="40" height="40" viewBox="0 0 40 40" fill="none" xmlns="http://www.w3.org/2000/svg">
<path fill-rule="evenodd" clip-rule="evenodd" d="M20 40C31.0457 40 40 31.0457 40 20C40 8.9543 31.0457 0 20 0C8.9543 0 0 8.9543 0 20C0 31.0457 8.9543 40 20 40ZM16.534 11H24.2068C27.1006 11 29.4439 13.3248 29.4439 16.1959V23.8041C29.4439 26.6752 27.1006 29 24.2068 29H16.534C13.6401 29 11.2969 26.6752 11.2969 23.8041V16.1959C11.2969 13.3248 13.6401 11 16.534 11ZM24.2993 27.3875C26.2153 27.3875 27.7745 25.8449 27.7745 23.9395H27.7701V16.1522C27.7701 14.2469 26.2153 12.7043 24.2949 12.7043H16.4415C14.5255 12.7043 12.9662 14.2469 12.9662 16.1522V23.9395C12.9662 25.8405 14.5211 27.3875 16.4415 27.3875H24.2993ZM15.662 20.0457C15.662 17.4674 17.7718 15.3742 20.3705 15.3742C22.9693 15.3742 25.0791 17.4674 25.0791 20.0457C25.0791 22.624 22.9737 24.7172 20.3705 24.7172C17.7674 24.7172 15.662 22.624 15.662 20.0457ZM17.3181 20.0457C17.3181 21.7194 18.688 23.0741 20.3705 23.0741C22.0575 23.0741 23.4229 21.7194 23.4229 20.0457C23.4229 18.372 22.0575 17.0173 20.3705 17.0173C18.6836 17.0173 17.3181 18.372 17.3181 20.0457ZM25.2374 14.1072C24.6339 14.1072 24.1406 14.5966 24.1406 15.1953C24.1406 15.794 24.6339 16.2834 25.2374 16.2834C25.8408 16.2834 26.3341 15.7984 26.3341 15.1953C26.3341 14.5922 25.8452 14.1072 25.2374 14.1072Z" fill="#999999"/>
</svg>
