<svg width="67" height="67" viewBox="0 0 67 67" fill="none" xmlns="http://www.w3.org/2000/svg">
<rect width="67" height="67" fill="#F36F29"/>
<path d="M19.48 49.18V37.4H15.54V35.46H25.84V37.4H21.94V49.18H19.48ZM33.5058 49.4C31.6124 49.4 30.1124 48.8133 29.0058 47.64C27.8991 46.4667 27.3458 44.7667 27.3458 42.54V42.1C27.3458 39.9267 27.9124 38.24 29.0458 37.04C30.1924 35.84 31.7191 35.24 33.6258 35.24C35.5058 35.24 36.9991 35.8267 38.1058 37C39.2258 38.1733 39.7858 39.8733 39.7858 42.1V42.54C39.7858 44.7133 39.2124 46.4 38.0658 47.6C36.9324 48.8 35.4124 49.4 33.5058 49.4ZM33.5858 47.5C34.7591 47.5 35.6458 47.08 36.2458 46.24C36.8591 45.3867 37.1658 44.24 37.1658 42.8V42.12C37.1658 38.8267 35.9458 37.1733 33.5058 37.16C32.3458 37.16 31.4658 37.58 30.8658 38.42C30.2658 39.2467 29.9658 40.38 29.9658 41.82V42.52C29.9658 45.84 31.1724 47.5 33.5858 47.5ZM42.3231 49.18V35.46H47.1231C48.7231 35.46 49.9298 35.82 50.7431 36.54C51.5565 37.26 51.9631 38.3067 51.9631 39.68C51.9631 41.08 51.5431 42.16 50.7031 42.92C49.8765 43.6667 48.7365 44.04 47.2831 44.04H44.7831V49.18H42.3231ZM44.7831 42.2H46.8231C47.7298 42.2 48.3831 42.0067 48.7831 41.62C49.1831 41.2333 49.3831 40.6333 49.3831 39.82C49.3831 38.9267 49.1898 38.2933 48.8031 37.92C48.4165 37.5467 47.7698 37.36 46.8631 37.36H44.7831V42.2Z" fill="white"/>
<path d="M26.7929 20.7929C26.4024 21.1834 26.4024 21.8166 26.7929 22.2071C27.1834 22.5976 27.8166 22.5976 28.2071 22.2071L26.7929 20.7929ZM33.5 15.5L34.2372 14.8243L33.5314 14.0544L32.7929 14.7929L33.5 15.5ZM38.2628 22.1757C38.636 22.5828 39.2686 22.6103 39.6757 22.2372C40.0828 21.864 40.1103 21.2314 39.7372 20.8243L38.2628 22.1757ZM28.2071 22.2071L34.2071 16.2071L32.7929 14.7929L26.7929 20.7929L28.2071 22.2071ZM32.7628 16.1757L38.2628 22.1757L39.7372 20.8243L34.2372 14.8243L32.7628 16.1757Z" fill="white"/>
</svg>
