<svg width="27" height="28" viewBox="0 0 27 28" fill="none" xmlns="http://www.w3.org/2000/svg">
<path fill-rule="evenodd" clip-rule="evenodd" d="M18.4899 21.5528C16.5723 22.9592 14.2188 23.7876 11.6755 23.7876C5.2273 23.7876 0 18.4626 0 11.8938C0 5.32504 5.2273 0 11.6755 0C18.1237 0 23.351 5.32504 23.351 11.8938C23.351 14.9753 22.2006 17.7832 20.3135 19.8959L26.6114 25.8533C27.1037 26.319 27.1321 27.1029 26.6748 27.6042C26.2175 28.1056 25.4478 28.1345 24.9555 27.6688L18.4899 21.5528ZM20.9179 11.8938C20.9179 17.0948 16.7793 21.3097 11.6755 21.3097C6.57174 21.3097 2.43311 17.0948 2.43311 11.8938C2.43311 6.69285 6.57174 2.47788 11.6755 2.47788C16.7793 2.47788 20.9179 6.69285 20.9179 11.8938Z" fill="#222222"/>
</svg>
