<svg width="27" height="27" viewBox="0 0 27 27" fill="none" xmlns="http://www.w3.org/2000/svg">
<path fill-rule="evenodd" clip-rule="evenodd" d="M10.5467 0C10.0089 0 9.5729 0.436418 9.5729 0.974767V4.01681C9.5729 4.4067 9.33869 4.75514 8.99142 4.93177C8.71584 5.07194 8.44787 5.22456 8.1883 5.38887C7.86591 5.59295 7.45706 5.61975 7.12517 5.43155L4.3934 3.8825C3.93086 3.62021 3.34364 3.77768 3.07404 4.2363L0.134683 9.23658C-0.141237 9.70597 0.0205942 10.3106 0.493997 10.579L3.18257 12.1036C3.52227 12.2962 3.7096 12.6732 3.6919 13.0636C3.68534 13.2082 3.68202 13.3537 3.68202 13.5C3.68202 13.6464 3.68534 13.7921 3.69192 13.9369C3.70964 14.3273 3.52231 14.7043 3.1826 14.8969L0.494074 16.4214C0.0206713 16.6899 -0.14116 17.2945 0.13476 17.7639L3.07412 22.7642C3.34371 23.2228 3.93093 23.3802 4.39348 23.118L7.12558 21.5687C7.45746 21.3805 7.86629 21.4073 8.18868 21.6114C8.44813 21.7756 8.71597 21.9281 8.99142 22.0682C9.33869 22.2449 9.5729 22.5933 9.5729 22.9832V26.0252C9.5729 26.5636 10.0089 27 10.5467 27H16.4535C16.9913 27 17.4273 26.5636 17.4273 26.0252V22.9831C17.4273 22.5932 17.6615 22.2448 18.0088 22.0682C18.2842 21.9281 18.552 21.7756 18.8114 21.6114C19.1338 21.4073 19.5426 21.3806 19.8745 21.5687L22.6065 23.118C23.0691 23.3802 23.6563 23.2228 23.9259 22.7642L26.8652 17.7639C27.1412 17.2945 26.9793 16.6899 26.5059 16.4214L23.8175 14.8969C23.4778 14.7043 23.2904 14.3273 23.3082 13.9369C23.3148 13.7921 23.3181 13.6464 23.3181 13.5C23.3181 13.3537 23.3148 13.2082 23.3082 13.0635C23.2905 12.6731 23.4778 12.2962 23.8175 12.1035L26.506 10.579C26.9794 10.3106 27.1412 9.70597 26.8653 9.23658L23.926 4.2363C23.6564 3.77768 23.0691 3.62021 22.6066 3.8825L19.8749 5.43152C19.543 5.61972 19.1341 5.59292 18.8118 5.38884C18.5522 5.22457 18.2843 5.07197 18.0088 4.93183C17.6615 4.7552 17.4273 4.40676 17.4273 4.01687V0.974768C17.4273 0.436419 16.9913 0 16.4535 0H10.5467ZM13.5002 18.3214C16.2114 18.3214 18.4092 16.1628 18.4092 13.5C18.4092 10.8372 16.2114 8.67857 13.5002 8.67857C10.789 8.67857 8.59121 10.8372 8.59121 13.5C8.59121 16.1628 10.789 18.3214 13.5002 18.3214Z" fill="#222222"/>
</svg>
