<svg width="12" height="13" viewBox="0 0 12 13" fill="none" xmlns="http://www.w3.org/2000/svg">
<path d="M11 2.5C11 3.32843 10.3284 4 9.5 4C8.67158 4 8.00001 3.32843 8.00001 2.5C8.00001 1.67157 8.67158 1 9.5 1C10.3284 1 11 1.67157 11 2.5Z" fill="#999999"/>
<path d="M3.99999 6.5C3.99999 7.32843 3.32842 8 2.49999 8C1.67157 8 1 7.32843 1 6.5C1 5.67157 1.67157 5 2.49999 5C3.32842 5 3.99999 5.67157 3.99999 6.5Z" fill="#999999"/>
<path d="M11 10.5C11 11.3284 10.3284 12 9.5 12C8.67158 12 8.00001 11.3284 8.00001 10.5C8.00001 9.67157 8.67158 9 9.5 9C10.3284 9 11 9.67157 11 10.5Z" fill="#999999"/>
<path d="M9.74808 2.93412C9.98783 2.79712 10.0711 2.49169 9.93413 2.25193C9.79712 2.01217 9.49169 1.92887 9.25194 2.06588L9.74808 2.93412ZM3.26041 6.0655L3.01234 5.63138L3.26041 6.0655ZM3.26041 6.9345L3.01234 7.36862L3.26041 6.9345ZM9.25194 10.9341C9.49169 11.0711 9.79712 10.9878 9.93413 10.7481C10.0711 10.5083 9.98783 10.2029 9.74808 10.0659L9.25194 10.9341ZM10.5 2.5C10.5 3.05229 10.0523 3.5 9.5 3.5V4.5C10.6046 4.5 11.5 3.60457 11.5 2.5H10.5ZM9.5 3.5C8.94773 3.5 8.50001 3.05229 8.50001 2.5H7.50001C7.50001 3.60457 8.39544 4.5 9.5 4.5V3.5ZM8.50001 2.5C8.50001 1.94771 8.94773 1.5 9.5 1.5V0.5C8.39544 0.5 7.50001 1.39543 7.50001 2.5H8.50001ZM9.5 1.5C10.0523 1.5 10.5 1.94771 10.5 2.5H11.5C11.5 1.39543 10.6046 0.5 9.5 0.5V1.5ZM3.49999 6.5C3.49999 7.05229 3.05227 7.5 2.49999 7.5V8.5C3.60456 8.5 4.49999 7.60457 4.49999 6.5H3.49999ZM2.49999 7.5C1.94771 7.5 1.5 7.05229 1.5 6.5H0.5C0.5 7.60457 1.39543 8.5 2.49999 8.5V7.5ZM1.5 6.5C1.5 5.94771 1.94771 5.5 2.49999 5.5V4.5C1.39543 4.5 0.5 5.39543 0.5 6.5H1.5ZM2.49999 5.5C3.05227 5.5 3.49999 5.94771 3.49999 6.5H4.49999C4.49999 5.39543 3.60456 4.5 2.49999 4.5V5.5ZM10.5 10.5C10.5 11.0523 10.0523 11.5 9.5 11.5V12.5C10.6046 12.5 11.5 11.6046 11.5 10.5H10.5ZM9.5 11.5C8.94773 11.5 8.50001 11.0523 8.50001 10.5H7.50001C7.50001 11.6046 8.39544 12.5 9.5 12.5V11.5ZM8.50001 10.5C8.50001 9.94771 8.94773 9.5 9.5 9.5V8.5C8.39544 8.5 7.50001 9.39543 7.50001 10.5H8.50001ZM9.5 9.5C10.0523 9.5 10.5 9.94771 10.5 10.5H11.5C11.5 9.39543 10.6046 8.5 9.5 8.5V9.5ZM9.25194 2.06588L3.01234 5.63138L3.50848 6.49962L9.74808 2.93412L9.25194 2.06588ZM3.01234 7.36862L9.25194 10.9341L9.74808 10.0659L3.50848 6.50038L3.01234 7.36862ZM3.01234 5.63138C2.34083 6.0151 2.34083 6.9849 3.01234 7.36862L3.50848 6.50038L3.50848 6.49962L3.01234 5.63138Z" fill="#999999"/>
</svg>
