<svg width="40" height="40" viewBox="0 0 40 40" fill="none" xmlns="http://www.w3.org/2000/svg">
<path fill-rule="evenodd" clip-rule="evenodd" d="M20 40C31.0457 40 40 31.0457 40 20C40 8.9543 31.0457 0 20 0C8.9543 0 0 8.9543 0 20C0 31.0457 8.9543 40 20 40ZM28.8013 15.528C29.5962 15.4326 30.3498 15.2153 31.057 14.892L31.0673 14.9132C30.5408 15.7188 29.8749 16.4289 29.1058 17.0013C29.1162 17.1709 29.1162 17.3457 29.1162 17.5206V17.5207C29.1162 22.8523 25.1623 29 17.9359 29C15.7163 29 13.6516 28.3322 11.9121 27.1875C12.2167 27.2246 12.5315 27.2405 12.8464 27.2405C14.6891 27.2405 16.3822 26.5939 17.7294 25.5128C16.0054 25.481 14.5549 24.3097 14.0542 22.7092C14.2968 22.7516 14.5394 22.7781 14.7975 22.7781C15.1537 22.7781 15.4995 22.7304 15.8299 22.6403C14.0336 22.2693 12.676 20.637 12.676 18.6814V18.6284C13.2077 18.9304 13.8116 19.1106 14.4568 19.1318C13.4039 18.4058 12.7122 17.1709 12.7122 15.7718C12.7122 15.0298 12.9083 14.3355 13.2438 13.742C15.1846 16.1799 18.0752 17.7857 21.3426 17.9553C21.2755 17.6585 21.2394 17.3511 21.2394 17.0331C21.2394 14.8072 22.9995 13 25.1726 13C26.2979 13 27.3199 13.4929 28.0374 14.2772C28.9303 14.0918 29.7717 13.7579 30.5305 13.2968C30.2363 14.2348 29.6117 15.0298 28.8013 15.528Z" fill="#999999"/>
</svg>
