<svg width="40" height="40" viewBox="0 0 40 40" fill="none" xmlns="http://www.w3.org/2000/svg">
<path fill-rule="evenodd" clip-rule="evenodd" d="M20 40C31.0457 40 40 31.0457 40 20C40 8.9543 31.0457 0 20 0C8.9543 0 0 8.9543 0 20C0 31.0457 8.9543 40 20 40ZM27.1065 13.2555C28.4312 13.4626 29.1527 14.0411 29.5383 15.5513H29.5321C29.6565 16.0507 29.8368 18.8275 29.8368 19.881V20.1124C29.8368 21.172 29.6627 23.9428 29.5321 24.4482C29.1465 25.9584 28.425 26.537 27.1003 26.744C26.3421 26.8535 22.6773 26.9935 19.7614 26.9937C16.8455 26.9935 13.1745 26.8535 12.4162 26.744C11.0915 26.5309 10.37 25.9524 9.98444 24.4482C9.86005 23.9428 9.67969 21.172 9.67969 20.1124V19.881C9.67969 18.8275 9.85383 16.0568 9.98444 15.5513C10.37 14.0411 11.0915 13.4626 12.4162 13.2494C13.1812 13.1398 16.8569 13.0059 19.7676 13.0059C22.6783 13.0059 26.3477 13.1459 27.1065 13.2555ZM19.7614 26.9937C19.7593 26.9937 19.7572 26.9937 19.7552 26.9937H19.7676C19.7655 26.9937 19.7634 26.9937 19.7614 26.9937ZM17.342 17.4695V22.53L22.1745 19.9419L17.342 17.4695Z" fill="#999999"/>
</svg>
